<svg width="49" height="49" viewBox="0 0 49 49" fill="none" xmlns="http://www.w3.org/2000/svg">
<circle cx="24.5" cy="24.5" r="24.5" fill="white"/>
<path d="M17.7229 14.7273C18.7759 14.1553 19.9394 13.6808 21.2134 13.3038C22.4874 12.9268 23.8004 12.7383 25.1524 12.7383C27.3754 12.7383 29.1369 13.3493 30.4369 14.5713C31.7499 15.7803 32.4064 17.3923 32.4064 19.4073C32.4064 21.2143 31.9124 22.7288 30.9244 23.9508C29.9494 25.1598 28.7469 26.1608 27.3169 26.9538L24.8794 28.3188L24.5674 32.2773C24.3334 32.3683 24.0864 32.4333 23.8264 32.4723C23.5794 32.4983 23.3259 32.5113 23.0659 32.5113C22.8059 32.5113 22.5329 32.4983 22.2469 32.4723C21.9609 32.4333 21.7009 32.3683 21.4669 32.2773L21.2329 26.4663L21.5644 26.0373L23.4754 25.0818C24.8534 24.3798 25.9649 23.6063 26.8099 22.7613C27.6679 21.9163 28.0969 20.9283 28.0969 19.7973C28.0969 18.7573 27.7589 17.9188 27.0829 17.2818C26.4199 16.6318 25.4839 16.3068 24.2749 16.3068C23.3909 16.3068 22.5199 16.4498 21.6619 16.7358C20.8039 17.0088 19.9849 17.3468 19.2049 17.7498C18.8539 17.4508 18.5289 17.0088 18.2299 16.4238C17.9309 15.8388 17.7619 15.2733 17.7229 14.7273ZM23.0464 35.6508C23.4494 35.6508 23.8524 35.6963 24.2554 35.7873C24.6714 35.8653 25.0094 35.9823 25.2694 36.1383C25.3734 36.3073 25.4514 36.5868 25.5034 36.9768C25.5684 37.3668 25.6009 37.6983 25.6009 37.9713C25.6009 38.2313 25.5684 38.5563 25.5034 38.9463C25.4514 39.3233 25.3734 39.6028 25.2694 39.7848C25.0094 39.9408 24.6714 40.0578 24.2554 40.1358C23.8524 40.2268 23.4494 40.2723 23.0464 40.2723C22.1364 40.2723 21.4019 40.1098 20.8429 39.7848C20.7389 39.6028 20.6544 39.3233 20.5894 38.9463C20.5374 38.5563 20.5114 38.2313 20.5114 37.9713C20.5114 37.6983 20.5374 37.3668 20.5894 36.9768C20.6544 36.5868 20.7389 36.3073 20.8429 36.1383C21.4019 35.8133 22.1364 35.6508 23.0464 35.6508Z" fill="#CA4343"/>
</svg>
