<svg width="49" height="49" viewBox="0 0 49 49" fill="none" xmlns="http://www.w3.org/2000/svg">
<circle cx="24.5" cy="24.5" r="24.5" fill="white"/>
<path d="M24.6319 24.2441V24.2599M18.3814 24.2441V24.2599M30.8823 24.2441V24.2599M10.5684 36.9254L12.5998 30.7433C10.8441 28.1092 10.2089 24.9898 10.8125 21.9651C11.416 18.9404 13.2171 16.2162 15.8809 14.2991C18.5447 12.382 21.8899 11.4024 25.2946 11.5425C28.6992 11.6825 31.9317 12.9327 34.3909 15.0605C36.85 17.1883 38.3686 20.049 38.6643 23.1106C38.9599 26.1723 38.0125 29.2266 35.9981 31.7057C33.9838 34.1847 31.0396 35.9198 27.713 36.5884C24.3864 37.2569 20.9038 36.8134 17.9126 35.3403L10.5684 36.9254Z" stroke="#CA4343" stroke-width="3" stroke-linecap="round" stroke-linejoin="round"/>
</svg>
