<svg width="26" height="24" viewBox="0 0 26 24" fill="none" xmlns="http://www.w3.org/2000/svg">
<path d="M22.775 23.0667L14.8417 15.6C14.1333 16.1333 13.3188 16.5556 12.3979 16.8667C11.4771 17.1778 10.4972 17.3333 9.45833 17.3333C6.88472 17.3333 4.70683 16.4947 2.92467 14.8173C1.14156 13.1391 0.25 11.0889 0.25 8.66667C0.25 6.24444 1.14156 4.19422 2.92467 2.516C4.70683 0.838667 6.88472 0 9.45833 0C12.0319 0 14.2103 0.838667 15.9934 2.516C17.7756 4.19422 18.6667 6.24444 18.6667 8.66667C18.6667 9.64444 18.5014 10.5667 18.1708 11.4333C17.8403 12.3 17.3917 13.0667 16.825 13.7333L24.7938 21.2333C25.0535 21.4778 25.1833 21.7778 25.1833 22.1333C25.1833 22.4889 25.0417 22.8 24.7583 23.0667C24.4986 23.3111 24.1681 23.4333 23.7667 23.4333C23.3653 23.4333 23.0347 23.3111 22.775 23.0667ZM9.45833 14.6667C11.2292 14.6667 12.7346 14.0836 13.9747 12.9173C15.2138 11.7502 15.8333 10.3333 15.8333 8.66667C15.8333 7 15.2138 5.58311 13.9747 4.416C12.7346 3.24978 11.2292 2.66667 9.45833 2.66667C7.6875 2.66667 6.18206 3.24978 4.942 4.416C3.70289 5.58311 3.08333 7 3.08333 8.66667C3.08333 10.3333 3.70289 11.7502 4.942 12.9173C6.18206 14.0836 7.6875 14.6667 9.45833 14.6667Z" fill="black"/>
</svg>
